<!-- svg budicon -->
<svg width="14px" height="14px" viewBox="0 0 14 14" version="1.1"
    xmlns="http://www.w3.org/2000/svg" xmlns:xlink="http://www.w3.org/1999/xlink">
    <!-- Generator: Sketch 63.1 (92452) - https://sketch.com -->
    <title>Budicon-Outline/Interface/cross-ui</title>
    <desc>Created with Sketch.</desc>
    <g id="Page-1" stroke="none" stroke-width="1" fill="none" fill-rule="evenodd">
        <g id="Homepage_Desktop_1440_Banner" transform="translate(-1357.000000, -13.000000)"
            fill="#000000" fill-rule="nonzero">
            <g id="Budicon-Outline/Interface/cross-ui"
                transform="translate(1352.000000, 8.000000)">
                <path
                    d="M18.1052702,17.4265502 C18.2871769,17.6148921 18.2845754,17.9142709 18.0994232,18.0994232 C17.9142709,18.2845754 17.6148921,18.2871769 17.4265502,18.1052702 L12.0059102,12.6846302 L6.58527024,18.1052702 C6.39692837,18.2871769 6.09754954,18.2845754 5.91239732,18.0994232 C5.7272451,17.9142709 5.72464358,17.6148921 5.90655024,17.4265502 L11.3271902,12.0059102 L5.90655024,6.58527024 C5.78177108,6.46475449 5.73172819,6.28628885 5.7756556,6.11846672 C5.81958301,5.95064459 5.95064459,5.81958301 6.11846672,5.7756556 C6.28628885,5.73172819 6.46475449,5.78177108 6.58527024,5.90655024 L12.0059102,11.3271902 L17.4265502,5.90655024 C17.547066,5.78177108 17.7255316,5.73172819 17.8933538,5.7756556 C18.0611759,5.81958301 18.1922375,5.95064459 18.2361649,6.11846672 C18.2800923,6.28628885 18.2300494,6.46475449 18.1052702,6.58527024 L12.6846302,12.0059102 L18.1052702,17.4265502 Z"
                    id="Shape"></path>
            </g>
        </g>
    </g>
</svg>