<svg id="icon-heart-saved" class="icon heart-icon" width="22px" height="22px" viewBox="0 0 22 22" version="1.1"
    xmlns="http://www.w3.org/2000/svg"
    xmlns:xlink="http://www.w3.org/1999/xlink" alt="Save">
    <g stroke="none" stroke-width="1" fill="none" fill-rule="evenodd">
        <g transform="translate(-9.000000, -9.000000)" fill="#B0B0B0">
            <g>
                <g transform="translate(9.000000, 9.000000)">
                    <g>
                        <path d="M16.28,0.88 C13.90708,0.88 11.997216,2.66376 11.00396,3.82712 C10.018008,2.662088 8.117912,0.88 5.72,0.88 C2.298648,0.88 0,3.355616 0,7.04 C0,13.58456 10.068784,20.473992 10.49752,20.772136 L10.99736,21.12 L11.49896,20.834528 C11.927784,20.5392 22,13.659888 22,7.04 C22,3.355616 19.701352,0.88 16.28,0.88 Z M11,20.049832 C11,20.049832 0.88,13.2 0.88,7.04 C0.88,3.96 2.64,1.76 5.72,1.76 C8.763304,1.76 11,5.28 11,5.28 C11,5.28 13.273304,1.76 16.28,1.76 C19.36,1.76 21.12,3.96 21.12,7.04 C21.12,13.27348 11,20.049832 11,20.049832 L11,20.049832 Z" fill-rule="nonzero"></path>
                    </g>
                </g>
            </g>
        </g>
    </g>
</svg>